<svg xmlns="http://www.w3.org/2000/svg" viewBox="0 0 559.39 123.9"><defs><style>.cls-1{fill:#9c1420;}</style></defs><g id="Layer_2" data-name="Layer 2"><g id="Layer_1-2" data-name="Layer 1"><path class="cls-1" d="M157.6,27.72h14.59V53.53h.93l22.07-25.81H212.5v.93L188.65,55.87,215.4,93.75v.93H197.63L178.55,67.47l-6.36,7.39V94.68H157.6Z"/><path class="cls-1" d="M241,47.36a26.34,26.34,0,0,1,9.87,1.82,24.17,24.17,0,0,1,7.86,5A22.47,22.47,0,0,1,263.89,62a27.4,27.4,0,0,1,0,19.64,22.47,22.47,0,0,1-5.14,7.72,24.17,24.17,0,0,1-7.86,5,27.65,27.65,0,0,1-19.73,0,24,24,0,0,1-7.86-5,22.33,22.33,0,0,1-5.14-7.72,27.26,27.26,0,0,1,0-19.64,22.33,22.33,0,0,1,5.14-7.72,24,24,0,0,1,7.86-5A26.28,26.28,0,0,1,241,47.36Zm0,35.73a10.51,10.51,0,0,0,4.07-.8,11,11,0,0,0,3.42-2.24,10.15,10.15,0,0,0,2.33-3.56,12.6,12.6,0,0,0,.84-4.72,12.32,12.32,0,0,0-.84-4.68,10.79,10.79,0,0,0-2.33-3.55A10.5,10.5,0,0,0,241,60.45a10.46,10.46,0,0,0-7.48,3.09,10.66,10.66,0,0,0-2.34,3.55,12.32,12.32,0,0,0-.84,4.68,12.6,12.6,0,0,0,.84,4.72,10,10,0,0,0,2.34,3.56A11,11,0,0,0,237,82.29,10.55,10.55,0,0,0,241,83.09Z"/><path class="cls-1" d="M277.22,60.64h-8.05V48.86h8.05v-14h14v14h11.31V60.64H291.25v16a10.29,10.29,0,0,0,.37,2.85,4.71,4.71,0,0,0,1.31,2.18,5.26,5.26,0,0,0,3.65,1.26,7.66,7.66,0,0,0,2.52-.37,7,7,0,0,0,1.78-.94l3.93,12.16a27.36,27.36,0,0,1-5.24,1.78,26.67,26.67,0,0,1-6,.65q-7.39,0-11.7-4.39a15.56,15.56,0,0,1-3.46-5.69,22.1,22.1,0,0,1-1.21-7.5Z"/><path class="cls-1" d="M333.52,47.36a26.34,26.34,0,0,1,9.87,1.82,24,24,0,0,1,7.85,5A22.36,22.36,0,0,1,356.39,62a27.4,27.4,0,0,1,0,19.64,22.36,22.36,0,0,1-5.15,7.72,24,24,0,0,1-7.85,5,27.67,27.67,0,0,1-19.74,0,24,24,0,0,1-7.85-5,22.36,22.36,0,0,1-5.15-7.72,27.4,27.4,0,0,1,0-19.64,22.36,22.36,0,0,1,5.15-7.72,24,24,0,0,1,7.85-5A26.37,26.37,0,0,1,333.52,47.36Zm0,35.73a10.55,10.55,0,0,0,4.07-.8A10.8,10.8,0,0,0,341,80.05a10,10,0,0,0,2.34-3.56,12.6,12.6,0,0,0,.84-4.72,12.32,12.32,0,0,0-.84-4.68A10.66,10.66,0,0,0,341,63.54a10.29,10.29,0,0,0-3.41-2.29,10.75,10.75,0,0,0-8.14,0A10.4,10.4,0,0,0,326,63.54a10.66,10.66,0,0,0-2.34,3.55,12.32,12.32,0,0,0-.84,4.68,12.6,12.6,0,0,0,.84,4.72A10,10,0,0,0,326,80.05a10.91,10.91,0,0,0,3.41,2.24A10.55,10.55,0,0,0,333.52,83.09Z"/><path class="cls-1" d="M365.13,48.86h13.1v5.79h.93a16.44,16.44,0,0,1,5.33-5.14,14.3,14.3,0,0,1,7.67-2.15,13.82,13.82,0,0,1,4.4.62,14.8,14.8,0,0,1,3.09,1.37L396,61.86a12.22,12.22,0,0,0-2.57-1,13.55,13.55,0,0,0-3.51-.38,9.43,9.43,0,0,0-8,3.65,15.39,15.39,0,0,0-2.76,9.54v21h-14Z"/><path class="cls-1" d="M406.75,27.72H434a24.59,24.59,0,0,1,8.37,1.4A22.08,22.08,0,0,1,449,32.86a17.31,17.31,0,0,1,4.39,5.47,14.21,14.21,0,0,1,1.59,6.5A15.18,15.18,0,0,1,452.35,54,17,17,0,0,1,446,59.42v.94a17.86,17.86,0,0,1,8.37,6,15.93,15.93,0,0,1,3,9.91A16.7,16.7,0,0,1,455.71,84a17,17,0,0,1-4.77,5.8,21.62,21.62,0,0,1-7.2,3.65,31,31,0,0,1-9,1.26h-28Zm25.81,26.56a9.26,9.26,0,0,0,6.08-1.78,6.15,6.15,0,0,0,2.16-5,6.18,6.18,0,0,0-2.16-5.05,8.67,8.67,0,0,0-5.7-1.77h-11.6V54.28Zm1.22,27.31q9.08,0,9.07-7.48t-9.44-7.48H421.34v15Z"/><path class="cls-1" d="M497.29,88.88h-.94q-4.68,7.31-14,7.3-8.61,0-12.81-5.52T465.3,76.17V48.86h14V74.58a9.94,9.94,0,0,0,1.78,6.12,6.42,6.42,0,0,0,5.51,2.39,8.21,8.21,0,0,0,7.25-3.65,16.68,16.68,0,0,0,2.48-9.54v-21h14V94.68H497.29Z"/><path class="cls-1" d="M539.28,96.18a28.67,28.67,0,0,1-8.42-1.12,23.16,23.16,0,0,1-6.31-3,18.24,18.24,0,0,1-4.44-4.21,20.34,20.34,0,0,1-2.72-4.81L530,77.76a9.37,9.37,0,0,0,3.65,4.62,10.41,10.41,0,0,0,5.61,1.45,8.83,8.83,0,0,0,4.35-.88,2.63,2.63,0,0,0,1.54-2.3,2.76,2.76,0,0,0-1.49-2.47,17.37,17.37,0,0,0-4.77-1.64l-6.27-1.31a22.45,22.45,0,0,1-4.58-1.5,17,17,0,0,1-4.3-2.71,13.43,13.43,0,0,1-3.18-4,11,11,0,0,1-1.22-5.29,12.21,12.21,0,0,1,1.45-5.94,14,14,0,0,1,4-4.53,19,19,0,0,1,6-2.9,26.36,26.36,0,0,1,7.58-1,28,28,0,0,1,12.25,2.48,16.16,16.16,0,0,1,7.76,8.27l-12.06,5a7.75,7.75,0,0,0-3.42-3.55,9.62,9.62,0,0,0-4.44-1.12,8,8,0,0,0-3.93.84,2.41,2.41,0,0,0-1.5,2,2.38,2.38,0,0,0,1.55,2.11,17.46,17.46,0,0,0,3.79,1.35l7.1,1.69q7,1.68,10.48,5.42a12.58,12.58,0,0,1,3.46,8.79,12.77,12.77,0,0,1-1.45,5.9,15.46,15.46,0,0,1-4.12,5,20.35,20.35,0,0,1-6.36,3.42A25.21,25.21,0,0,1,539.28,96.18Z"/><rect class="cls-1" x="70.62" y="87.52" width="14.52" height="10.66" rx="1.75"/><path class="cls-1" d="M70.62,19.73V72.27a5,5,0,0,0,5,5H123.9V14.77H75.58A5,5,0,0,0,70.62,19.73Z"/><path class="cls-1" d="M30,47.07a5.26,5.26,0,0,0,1.31-1.81,6.16,6.16,0,0,0,0-4.67A5.26,5.26,0,0,0,30,38.78a6,6,0,0,0-2-1.17,7.49,7.49,0,0,0-2.5-.41H19.28V54.8h3.83V48.65h2.46a7.25,7.25,0,0,0,2.5-.42A5.77,5.77,0,0,0,30,47.07ZM25.69,45H23.11V40.84h2.58a2.41,2.41,0,0,1,1.8.59,2.19,2.19,0,0,1,0,3A2.41,2.41,0,0,1,25.69,45Z"/><path class="cls-1" d="M86.42,113.73v7.32a2.85,2.85,0,0,1-2.85,2.85h28.35a12,12,0,0,0,11.83-10.17Z"/><path class="cls-1" d="M69.33,121.05V113a11.56,11.56,0,0,1-7.52-10.83V59.44H57.32a5,5,0,0,1-5-5v-17a5,5,0,0,1,5-5h4.49V16.72A11.57,11.57,0,0,1,73.38,5.15h48.37A12,12,0,0,0,111.92,0H12A12,12,0,0,0,0,12v99.94a12,12,0,0,0,12,12H23.26V63.32H12.35a4.18,4.18,0,0,1-4.18-4.17V32.85a4.18,4.18,0,0,1,4.18-4.18H38.64a4.18,4.18,0,0,1,4.18,4.18v26.3a4.18,4.18,0,0,1-4.18,4.17H27.73V123.9H72.18A2.86,2.86,0,0,1,69.33,121.05Z"/></g></g></svg>