<svg xmlns="http://www.w3.org/2000/svg" viewBox="0 0 123.9 123.9"><defs><style>.cls-1{fill:#fff;}</style></defs><g id="Layer_2" data-name="Layer 2"><g id="Layer_1-2" data-name="Layer 1"><rect class="cls-1" x="70.62" y="87.52" width="14.52" height="10.66" rx="1.75"/><path class="cls-1" d="M70.62,19.73V72.27a5,5,0,0,0,5,5H123.9V14.77H75.58A5,5,0,0,0,70.62,19.73Z"/><path class="cls-1" d="M30,47.07a5.26,5.26,0,0,0,1.31-1.81,6.16,6.16,0,0,0,0-4.67A5.26,5.26,0,0,0,30,38.78a6,6,0,0,0-2-1.17,7.49,7.49,0,0,0-2.5-.41H19.28V54.8h3.83V48.65h2.46a7.25,7.25,0,0,0,2.5-.42A5.77,5.77,0,0,0,30,47.07ZM25.69,45H23.11V40.84h2.58a2.41,2.41,0,0,1,1.8.59,2.19,2.19,0,0,1,0,3A2.41,2.41,0,0,1,25.69,45Z"/><path class="cls-1" d="M86.42,113.73v7.32a2.85,2.85,0,0,1-2.85,2.85h28.35a12,12,0,0,0,11.83-10.17Z"/><path class="cls-1" d="M69.33,121.05V113a11.56,11.56,0,0,1-7.52-10.83V59.44H57.32a5,5,0,0,1-5-5v-17a5,5,0,0,1,5-5h4.49V16.72A11.57,11.57,0,0,1,73.38,5.15h48.37A12,12,0,0,0,111.92,0H12A12,12,0,0,0,0,12v99.94a12,12,0,0,0,12,12H23.26V63.32H12.35a4.18,4.18,0,0,1-4.18-4.17V32.85a4.18,4.18,0,0,1,4.18-4.18H38.64a4.18,4.18,0,0,1,4.18,4.18v26.3a4.18,4.18,0,0,1-4.18,4.17H27.73V123.9H72.18A2.86,2.86,0,0,1,69.33,121.05Z"/></g></g></svg>